# xmcd
#
# Track frame offsets: 
#        150
#        16738
#        36191
#        59090
#        78805
#        98938
#        117964
#        141001
#        156701
#        177283
#        200445
#        219958
#        240961
#        258291
#        278403
#        297211
#        314532
#        330550
#
# Disc length: 4621 seconds
#
# Revision: 0
# Processed by: cddbd v1.5.2PL0 Copyright (c) Steve Scherf et al.
# Submitted via: ExactAudioCopy v0.99pb5
#
DISCID=fa120b12
DTITLE=Various Artist - Down South Blues Jamz
DYEAR=2003
DGENRE=Blues
TTITLE0=Peggy Scott-Adams - Hi Class, Lo Class and No Class
TTITLE1=Sterling Williams - My Secret Love
TTITLE2=Donnie Ray - A Letter To My Baby (Classic)
TTITLE3=Carl Marshall - Jingle My Bell
TTITLE4=Peggy Scott -Adams - If You Wanna Hear Me Hollar, Lick Me Up S
TTITLE4=ome Dollars
TTITLE5=B.B. Queen - Newsy Neighbors
TTITLE6=Mr. Zay - Laid Back Old School Lover
TTITLE7=Clarence Carter - A Good Time Tonight
TTITLE8=Tyrone Davis - Love Line
TTITLE9=Robert Tillman - Woman, Lover, Friend
TTITLE10=Donnie Ray - Come Back
TTITLE11=I'mjusvon - Root Doctor
TTITLE12=Marvin Sease - Do You Qualify
TTITLE13=Peggy Scott-Adams - A Woman Knows How To Please Herself
TTITLE14=Clarence Carter - Do It To Me Again
TTITLE15=Tyrone Davis - Who's Been Rockin' My Bed
TTITLE16=Marvin Sease - I'm Hooked On You
TTITLE17=Clarence Carter - Did I Do The Right Thing
EXTD=
EXTT0=
EXTT1=
EXTT2=
EXTT3=
EXTT4=
EXTT5=
EXTT6=
EXTT7=
EXTT8=
EXTT9=
EXTT10=
EXTT11=
EXTT12=
EXTT13=
EXTT14=
EXTT15=
EXTT16=
EXTT17=
PLAYORDER=
